# xmcd CD database file
#
# Track frame offsets:
#	150
#	14335
#	25890
#	38290
#	51865
#	65285
#	80442
#	92690
#	107320
#	122107
#	133857
#	147737
#	159805
#	173722
#	186240
#	200050
#	214452
#	228562
#
# Disc length: 3221 seconds
#
# Revision: 3
# Processed by: cddbd v1.5.2PL0 Copyright (c) Steve Scherf et al.
# Submitted via: CDex 1.70beta2
#
DISCID=f70c9312
DTITLE=Various Artist - Blues - Volume 2
DYEAR=2000
DGENRE=Blues
TTITLE0=Big Bill Broozny - Worrying You Off My Mind
TTITLE1=Champion Jack Dupree - Chain Gang Blues
TTITLE2=Roosevelt Sykes - Trouble And Whiskey
TTITLE3=Lonnie Johnson - Mean Old Bedbug Blues
TTITLE4=Robert Johnson - When You Got A Good Friend
TTITLE5=Tampa Red - Western Bound Blues
TTITLE6=Brownie McGhee - I'm Calling Daisy
TTITLE7=Blind Willie Johnson - If I Had My Way I'd Tear The Building Down
TTITLE8=Blind Willie McTell - Stomp Down Rider
TTITLE9=Leadbelly - Rock Island Line
TTITLE10=Leroy Carr - Good Woman Blues
TTITLE11=Arthur "Big Boy" Crudup - Mean Old 'Frisco Blues
TTITLE12=Barbecue Bob - California Blues
TTITLE13=Big Joe Turner - Rebecca
TTITLE14=Sonny Boy Williamson - Sugar Mama Blues
TTITLE15=Blind Boy Fuller - I'm A Rattlesnakin' Daddy
TTITLE16=Sleepy John Estes - Working Man Blues
TTITLE17=Bukka White - Strange Place Blues
EXTD=YEAR: 2000
EXTT0=
EXTT1=
EXTT2=
EXTT3=
EXTT4=
EXTT5=
EXTT6=
EXTT7=
EXTT8=
EXTT9=
EXTT10=
EXTT11=
EXTT12=
EXTT13=
EXTT14=
EXTT15=
EXTT16=
EXTT17=
PLAYORDER=
